<svg xmlns="http://www.w3.org/2000/svg" xmlns:xlink="http://www.w3.org/1999/xlink" width="500" zoomAndPan="magnify" viewBox="0 0 375 374.999991" height="500" preserveAspectRatio="xMidYMid meet" version="1.0"><defs><clipPath id="c9d1e018d2"><path d="M 26.273438 26.273438 L 348.773438 26.273438 L 348.773438 348.773438 L 26.273438 348.773438 Z M 26.273438 26.273438 " clip-rule="nonzero"/></clipPath><clipPath id="c57ccda08d"><path d="M 58 54 L 314.40625 54 L 314.40625 326 L 58 326 Z M 58 54 " clip-rule="nonzero"/></clipPath></defs><rect x="-37.5" width="450" fill="#ffffff" y="-37.499999" height="449.999989" fill-opacity="1"/><rect x="-37.5" width="450" fill="#ffffff" y="-37.499999" height="449.999989" fill-opacity="1"/><rect x="-37.5" width="450" fill="#789484" y="-37.499999" height="449.999989" fill-opacity="1"/><g clip-path="url(#c9d1e018d2)"><path fill="#ffffff" d="M 348.773438 348.773438 L 141.367188 348.773438 C 77.90625 348.773438 26.273438 297.140625 26.273438 233.675781 L 26.273438 26.273438 L 233.675781 26.273438 C 297.140625 26.273438 348.773438 77.90625 348.773438 141.367188 Z M 27.558594 27.558594 L 27.558594 233.675781 C 27.558594 296.433594 78.613281 347.488281 141.367188 347.488281 L 347.488281 347.488281 L 347.488281 141.367188 C 347.488281 78.613281 296.433594 27.558594 233.675781 27.558594 Z M 27.558594 27.558594 " fill-opacity="1" fill-rule="nonzero"/></g><g clip-path="url(#c57ccda08d)"><path fill="#ffffff" d="M 68.410156 237.96875 C 67.015625 215.214844 72.828125 192.234375 84.585938 172.707031 C 96.378906 153.128906 114.078125 137.742188 134.988281 128.484375 C 155.84375 119.25 179.542969 116.234375 201.957031 120.757812 C 224.3125 125.269531 245.671875 137.285156 258.613281 156.386719 C 270.917969 174.550781 275.5 198.335938 267.566406 219.164062 C 260.316406 238.210938 243.546875 252.875 224.507812 259.613281 C 204.292969 266.769531 182.113281 264.1875 163.164062 254.554688 C 143.625 244.621094 127.96875 227.890625 119.269531 207.820312 C 110.609375 187.828125 108.691406 165.0625 113.1875 143.804688 C 117.65625 122.6875 128.566406 103.5 144.675781 89.066406 C 160.324219 75.046875 180.109375 65.761719 200.816406 62.257812 C 221.960938 58.679688 244.269531 61.378906 263.527344 70.988281 C 273.359375 75.898438 282.324219 82.597656 289.375 91.050781 C 296.550781 99.644531 301.429688 109.933594 304.148438 120.75 C 309.699219 142.855469 306.769531 166.355469 301.710938 188.261719 C 298.972656 200.117188 295.601562 211.863281 291.691406 223.382812 C 287.703125 235.132812 283.003906 246.664062 277.171875 257.632812 C 266.339844 277.980469 251.394531 296.296875 231.757812 308.738281 C 222.460938 314.632812 212.246094 319.109375 201.476562 321.507812 C 190.375 323.976562 178.84375 324.089844 167.660156 322.085938 C 144.738281 317.980469 123.71875 305.6875 107.035156 289.730469 C 90.390625 273.8125 77.503906 253.914062 69.621094 232.3125 C 61.792969 210.871094 58.84375 187.542969 62.160156 164.902344 C 65.289062 143.550781 73.65625 123.003906 86.386719 105.554688 C 99.398438 87.71875 117.074219 73.371094 137.613281 65.058594 C 158.410156 56.644531 181.648438 54.054688 203.746094 58.128906 C 225.542969 62.144531 245.226562 72.882812 261.09375 88.222656 C 276.769531 103.382812 288.535156 122.261719 297.054688 142.222656 C 306.496094 164.335938 312.871094 188.640625 312.117188 212.8125 C 311.734375 225.105469 309.367188 237.453125 304.363281 248.738281 C 300.398438 257.683594 294.792969 265.851562 288 272.894531 C 274.351562 287.054688 256.210938 296.675781 236.984375 300.699219 C 217.242188 304.832031 196.769531 302.5625 178.367188 294.339844 C 159.746094 286.023438 143.722656 272.289062 132.050781 255.65625 C 119.382812 237.597656 111.941406 216.160156 111.125 194.101562 C 110.660156 181.4375 112.398438 168.675781 116.714844 156.734375 C 120.308594 146.789062 125.800781 137.570312 132.71875 129.566406 C 146.1875 113.988281 164.8125 102.898438 184.988281 98.605469 C 205.730469 94.1875 227.492188 97.691406 246.269531 107.347656 C 265.207031 117.082031 280.964844 132.765625 290.082031 152.03125 C 300.449219 173.949219 302.492188 199.539062 296.574219 222.972656 C 291.40625 243.460938 280.332031 262.375 265.214844 277.148438 C 249.535156 292.46875 229.660156 302.792969 208.066406 306.761719 C 185.519531 310.90625 161.613281 308.277344 140.625 299.027344 C 120.703125 290.25 103.890625 275.429688 92.148438 257.183594 C 80.9375 239.761719 74.363281 219.40625 73.871094 198.675781 C 73.84375 197.492188 71.992188 197.488281 72.019531 198.675781 C 72.542969 220.652344 79.769531 242.257812 92.085938 260.445312 C 104.53125 278.8125 122.042969 293.449219 142.644531 301.875 C 164.148438 310.667969 188.316406 312.75 211.054688 308.054688 C 232.914062 303.542969 252.902344 292.449219 268.464844 276.511719 C 283.527344 261.078125 294.398438 241.476562 299.082031 220.421875 C 304.433594 196.371094 301.605469 170.382812 290.339844 148.382812 C 280.554688 129.273438 264.078125 113.816406 244.75 104.53125 C 225.417969 95.246094 203.382812 92.324219 182.433594 97.289062 C 161.902344 102.15625 143 113.980469 129.6875 130.316406 C 122.90625 138.636719 117.644531 148.066406 114.234375 158.238281 C 110.128906 170.492188 108.640625 183.574219 109.390625 196.457031 C 110.679688 218.71875 118.550781 240.261719 131.671875 258.289062 C 143.875 275.0625 160.421875 288.800781 179.617188 296.878906 C 198.5625 304.855469 219.414062 306.65625 239.449219 302.046875 C 258.929688 297.566406 277.265625 287.359375 290.800781 272.617188 C 297.546875 265.269531 303.039062 256.816406 306.847656 247.597656 C 311.640625 236.007812 313.816406 223.464844 314.011719 210.960938 C 314.394531 186.328125 307.632812 161.660156 297.761719 139.238281 C 288.832031 118.953125 276.472656 99.8125 260.078125 84.722656 C 243.515625 69.484375 223.082031 59.164062 200.75 55.761719 C 178.171875 52.320312 154.714844 55.511719 133.816406 64.671875 C 113.1875 73.714844 95.695312 88.804688 82.921875 107.25 C 70.339844 125.417969 62.34375 146.722656 59.820312 168.65625 C 57.15625 191.847656 60.859375 215.585938 69.523438 237.210938 C 78.246094 258.980469 91.957031 278.941406 109.535156 294.542969 C 127.09375 310.132812 148.921875 321.75 172.445312 324.660156 C 183.777344 326.0625 195.3125 325.25 206.320312 322.199219 C 217.167969 319.1875 227.40625 314.132812 236.628906 307.71875 C 256.207031 294.105469 270.796875 274.835938 281.292969 253.636719 C 286.949219 242.21875 291.496094 230.273438 295.363281 218.140625 C 299.078125 206.488281 302.351562 194.644531 304.828125 182.664062 C 309.457031 160.242188 311.503906 136.046875 304.09375 113.972656 C 300.550781 103.414062 294.796875 93.675781 287.015625 85.671875 C 279.179688 77.613281 269.566406 71.378906 259.238281 66.988281 C 239.144531 58.445312 216.621094 56.851562 195.34375 61.433594 C 174.453125 65.9375 154.746094 76.320312 139.550781 91.355469 C 123.835938 106.90625 113.742188 127.296875 110.34375 149.082031 C 106.945312 170.867188 110.007812 193.707031 119.886719 213.5 C 129.761719 233.277344 146.667969 249.496094 166.960938 258.382812 C 177.03125 262.792969 187.898438 265.398438 198.910156 265.621094 C 209.351562 265.832031 219.726562 263.761719 229.339844 259.707031 C 248.1875 251.753906 264.195312 236.164062 270.460938 216.480469 C 277.332031 194.894531 271.605469 170.679688 258.285156 152.742188 C 244.425781 134.078125 222.609375 122.515625 199.933594 118.5 C 177.042969 114.449219 153.15625 117.996094 132.128906 127.761719 C 110.988281 137.582031 93.269531 153.742188 81.707031 173.960938 C 70.65625 193.277344 65.199219 215.746094 66.558594 237.96875 C 66.628906 239.148438 68.480469 239.15625 68.410156 237.96875 " fill-opacity="1" fill-rule="nonzero"/></g></svg>